:SAMPLES-PER-SECOND 30
:FRAME-RANGE 1-1700
:FULLY-SPECIFIED
:DEGREES
1169
root  16.704 38.3961 30.5278 177.542 -15.7234 177.702
RightUpLeg  -18.858 -1.0654 0.534101
RightLeg  2.62011 -12.4768 1.81663
RightFoot  2.02498 -0.707538 6.15014
RightToes  -1.16417e-010 0 -3.6325e-017
Spine  10.1744 -1.32751 -2.34041
Spine1  -0.0963128 -1.32435 -1.0457
HEad  7.45867 3.5529 -4.18344
LeftShoulder1  1.34094 -0.207628 -30.0643
LeftArm  20.5475 -10.0373 -36.4059
LeftForeArm  -3.31461 -18.0049 -9.26887
LeftHand  0.29935 -0.871758 -5.49173
RightShoulder  5.79732 7.04343 48.1623
RightArm  17.3594 -6.29094 13.1141
RightForeArm  18.7373 -3.08989 18.0994
RightHand  0.370622 2.17602 5.50893
LeftUpLeg  15.4422 10.9628 0.11131
LeftLeg  11.1676 9.09441 -2.47561
LeftFoot  -21.1388 -0.392269 -6.05092
LeftToes  1.03528e-008 1.55373e-010 -2.26046e-010
1170
root  16.193 38.3258 29.1071 177.26 -15.3117 179.013
RightUpLeg  -19.9236 -1.30864 3.00358
RightLeg  8.34484 -12.1318 0.0213588
RightFoot  5.58717 0.218692 -1.2117
RightToes  -1.16417e-010 0 -3.6325e-017
Spine  10.2701 -1.45162 0.154122
Spine1  0.556859 -1.56372 -0.436164
HEad  7.74784 4.63613 -5.09099
LeftShoulder1  1.32998 -0.144263 -30.3946
LeftArm  23.6047 -8.23507 -36.4738
LeftForeArm  -6.01562 -19.8032 -7.7509
LeftHand  0.294659 -0.772648 -5.50287
RightShoulder  5.70425 6.86835 48.1904
RightArm  18.2217 -6.01015 13.0114
RightForeArm  19.6904 -3.19568 18.1493
RightHand  0.413551 2.37034 5.99515
LeftUpLeg  17.6308 12.885 2.55117
LeftLeg  12.1275 6.74091 -2.19
LeftFoot  -21.1539 -0.614791 -8.6252
LeftToes  1.03528e-008 1.55373e-010 -2.26046e-010
1171
root  15.6794 38.2711 27.5842 176.666 -14.6659 -179.438
RightUpLeg  -20.6933 -2.91425 5.98625
RightLeg  14.6234 -9.30981 -2.12396
RightFoot  4.70373 0.765309 -5.19449
RightToes  -1.16417e-010 0 -3.6325e-017
Spine  10.7103 -1.65956 3.19954
Spine1  0.543047 -1.50509 -0.581316
HEad  8.25674 5.76894 -5.89162
LeftShoulder1  1.32355 -0.0556006 -31.1273
LeftArm  23.4903 -6.133 -36.3744
LeftForeArm  -5.31911 -19.7338 -7.77165
LeftHand  0.297365 -0.891688 -5.43522
RightShoulder  5.60328 6.64341 48.3897
RightArm  17.1588 -5.71536 12.737
RightForeArm  20.5202 -3.42347 18.0458
RightHand  0.436792 2.43669 6.28257
LeftUpLeg  19.1996 17.7481 6.47387
LeftLeg  15.7923 1.30285 -1.01521
LeftFoot  -20.2593 -0.897126 -13.0106
LeftToes  1.03528e-008 1.55373e-010 -2.26046e-010
1172
root  15.2557 38.2121 26.0825 176.641 -13.9745 -178.607
RightUpLeg  -20.9497 -3.56209 7.38514
RightLeg  19.6632 -7.75866 -3.26701
RightFoot  1.55512 0.599309 -5.20136
RightToes  -1.16417e-010 0 -3.6325e-017
Spine  10.6136 -1.6887 4.84868
Spine1  0.635647 -1.37987 -0.173922
HEad  8.95008 6.86551 -6.39756
LeftShoulder1  1.28853 0.0587223 -31.3444
LeftArm  22.5286 -3.40374 -36.7442
LeftForeArm  -4.12268 -18.8368 -8.54816
LeftHand  0.2964 -0.862701 -5.44574
RightShoulder  5.81303 6.97174 48.627
RightArm  15.3946 -5.50098 12.6308
RightForeArm  20.4708 -3.84634 17.9176
RightHand  0.434351 2.37613 6.30048
LeftUpLeg  17.4885 19.8137 8.83254
LeftLeg  23.7831 -0.954313 -0.122175
LeftFoot  -16.805 -0.822302 -19.1722
LeftToes  1.03528e-008 1.55373e-010 -2.26046e-010
1173
root  14.9252 38.1582 24.7444 176.939 -14.252 -177.461
RightUpLeg  -20.8806 -4.49572 8.61242
RightLeg  22.8619 -7.47859 -3.65886
RightFoot  -1.85053 0.43086 -5.33343
RightToes  -1.16417e-010 0 -3.6325e-017
Spine  10.6039 -1.92678 6.78771
Spine1  0.609391 -1.33726 0.666498
HEad  9.95238 7.29205 -6.3684
LeftShoulder1  1.25533 0.122371 -31.0639
LeftArm  21.8759 -0.952942 -37.4511
LeftForeArm  -2.63705 -17.375 -9.87535
LeftHand  0.318718 -0.843129 -5.88223
RightShoulder  5.95144 7.19151 48.761
RightArm  12.8146 -5.32623 12.9103
RightForeArm  21.2481 -3.93888 17.6123
RightHand  0.437996 2.27278 6.4498
LeftUpLeg  11.4799 17.1121 9.90509
LeftLeg  35.5544 0.542341 0.779673
LeftFoot  -7.75184 0.835016 -24.8224
LeftToes  1.03528e-008 1.55373e-010 -2.26046e-010
1174
root  14.6073 38.0139 23.5458 177.043 -15.0673 -175.785
RightUpLeg  -20.8163 -5.57466 10.1686
RightLeg  25.7522 -7.33738 -4.03434
RightFoot  -5.20528 0.211468 -4.59714
RightToes  -1.16417e-010 0 -3.6325e-017
Spine  10.9878 -2.2058 9.7112
Spine1  0.304984 -1.05817 1.14813
HEad  10.1815 6.72775 -6.24544
LeftShoulder1  1.25972 0.107694 -31.0327
LeftArm  21.3835 0.350399 -37.8751
LeftForeArm  -0.212782 -15.3094 -11.6463
LeftHand  0.357004 -0.9346 -6.49151
RightShoulder  6.00678 7.2908 48.7612
RightArm  12.1248 -5.15196 13.3573
RightForeArm  21.4132 -2.42899 17.387
RightHand  0.461416 2.47171 6.61427
LeftUpLeg  3.4614 13.6485 10.9825
LeftLeg  48.0671 0.662628 1.21514
LeftFoot  6.11022 2.95541 -19.3398
LeftToes  1.03528e-008 1.55373e-010 -2.26046e-010
1175
root  14.2834 37.8556 22.3904 176.587 -15.217 -174.626
RightUpLeg  -19.9339 -5.28649 11.1034
RightLeg  28.5505 -7.67868 -4.63273
RightFoot  -8.36371 0.0463487 -3.95527
RightToes  -1.16417e-010 0 -3.6325e-017
Spine  11.75 -2.18014 12.2849
Spine1  0.506775 -0.317777 1.19646
HEad  9.91019 5.78005 -5.84029
LeftShoulder1  1.2653 0.0938518 -31.0461
LeftArm  21.5617 1.54148 -37.9612
LeftForeArm  1.15012 -14.1675 -12.5753
LeftHand  0.379154 -0.834674 -7.02145
RightShoulder  6.41799 7.91406 49.2525
RightArm  13.9289 -4.42691 13.638
RightForeArm  19.9188 -0.187707 17.3154
RightHand  0.459276 2.52866 6.53048
LeftUpLeg  -3.01808 11.629 12.023
LeftLeg  57.4415 -0.444632 -0.239115
LeftFoot  15.7336 2.70798 -11.6205
LeftToes  1.03528e-008 1.55373e-010 -2.26046e-010
1176
root  13.9453 38.0526 21.0603 176.245 -14.6635 -175.213
RightUpLeg  -16.9223 -4.28243 10.275
RightLeg  28.676 -8.18515 -4.79948
RightFoot  -10.4975 -0.0460514 -3.37953
RightToes  -1.16417e-010 0 -3.6325e-017
Spine  12.4606 -1.74377 12.6205
Spine1  0.297702 0.502358 0.473477
HEad  9.75312 5.17954 -5.36337
LeftShoulder1  1.22197 0.203528 -30.964
LeftArm  20.0847 3.24855 -37.7261
LeftForeArm  2.81312 -13.0624 -13.3038
LeftHand  0.378508 -0.708572 -7.16948
RightShoulder  7.14179 9.08248 49.7117
RightArm  15.6525 -3.11101 14.1623
RightForeArm  19.3974 1.15195 17.2184
RightHand  0.430246 2.53352 6.10174
LeftUpLeg  -8.0267 10.7518 11.5619
LeftLeg  63.2296 -0.537565 -0.549223
LeftFoot  10.2461 2.08705 -11.2489
LeftToes  1.03528e-008 1.55373e-010 -2.26046e-010
1177
root  13.582 38.2883 19.7078 176.242 -13.961 -176.188
RightUpLeg  -13.755 -3.34658 9.04037
RightLeg  28.0125 -8.39593 -4.61711
RightFoot  -12.3742 -0.107172 -2.6086
RightToes  -1.16417e-010 0 -3.6325e-017
Spine  12.6321 -1.32068 12.7687
Spine1  -0.00128471 1.20371 -0.724567
HEad  9.86506 5.03706 -5.14598
LeftShoulder1  1.17067 0.344576 -30.9916
LeftArm  19.948 5.53361 -36.8986
LeftForeArm  1.99539 -12.941 -13.4562
LeftHand  0.369435 -0.61251 -7.12008
RightShoulder  7.93485 10.445 49.829
RightArm  14.8604 -1.45208 15.0495
RightForeArm  21.2942 1.25177 17.0035
RightHand  0.424263 2.75028 5.83602
LeftUpLeg  -12.6825 10.341 10.4423
LeftLeg  65.0477 -0.635814 -0.843294
LeftFoot  8.07556 1.78358 -10.6902
LeftToes  1.03528e-008 1.55373e-010 -2.26046e-010
1178
root  13.2004 38.5563 18.3121 176.362 -13.2601 -177.173
RightUpLeg  -10.1853 -3.12446 7.73344
RightLeg  26.2707 -8.06505 -3.91661
RightFoot  -13.8614 -0.143149 -2.24723
RightToes  -1.16417e-010 0 -3.6325e-017
Spine  12.421 -0.807299 12.9006
Spine1  -0.38327 1.85223 -2.06312
HEad  10.2554 4.93819 -5.37386
LeftShoulder1  1.13833 0.452339 -31.2404
LeftArm  19.5695 7.77109 -35.754
LeftForeArm  1.17995 -12.7776 -13.6235
LeftHand  0.356796 -0.358517 -7.21146
RightShoulder  8.50716 11.5743 49.4166
RightArm  14.6334 -0.149514 16.138
RightForeArm  21.0071 2.42554 16.6479
RightHand  0.404929 2.59369 5.68322
LeftUpLeg  -16.6474 10.1154 9.06181
LeftLeg  63.4807 -0.718158 -0.955733
LeftFoot  6.03529 1.45831 -9.76674
LeftToes  1.03528e-008 1.55373e-010 -2.26046e-010
